<svg width="25" height="19" viewBox="0 0 25 19" fill="none" xmlns="http://www.w3.org/2000/svg">
<g clip-path="url(#clip0_63_804)">
<path d="M0.837524 0H24.8375V18.1463H0.837524V0Z" fill="#EE1C25"/>
<path d="M3.71754 6.71409L5.33752 1.81458L6.9575 6.71409L2.63756 3.71994H8.03749L3.71754 6.71409Z" fill="#FFFF00"/>
<path d="M10.7439 1.90858L9.07677 2.28103L10.1888 0.974624L10.0798 2.73288L9.15459 1.17629L10.7439 1.90858Z" fill="#FFFF00"/>
<path d="M12.4265 4.05825L10.7465 3.74971L12.2741 2.98036L11.4972 4.55835L11.2433 2.76186L12.4265 4.05825Z" fill="#FFFF00"/>
<path d="M12.1813 7.07425L10.7722 6.10178L12.4782 6.02744L11.1305 7.14876L11.6254 5.40407L12.1813 7.07425Z" fill="#FFFF00"/>
<path d="M10.0621 9.04449L9.13495 7.59883L10.7371 8.19454L9.06429 8.70406L10.1892 7.28747L10.0621 9.04449Z" fill="#FFFF00"/>
</g>
<defs>
<clipPath id="clip0_63_804">
<rect x="0.837524" width="24" height="18.1463" rx="2" fill="white"/>
</clipPath>
</defs>
</svg>
