<svg width="42" height="41" viewBox="0 0 42 41" fill="none" xmlns="http://www.w3.org/2000/svg">
<path d="M18.8149 37.2713L29.7018 41L39.2334 31.4689L28.2712 27.815L18.8149 37.2713ZM23.7172 36.6892C23.1405 37.2659 22.2009 37.5155 21.6177 37.2465C21.0352 36.9776 21.0298 36.2925 21.6068 35.7158C22.1835 35.1391 23.1231 34.8895 23.7063 35.1585C24.2893 35.4275 24.2937 36.1126 23.7172 36.6892ZM27.2328 37.9207C26.6562 38.4974 25.7165 38.747 25.1334 38.478C24.5508 38.209 24.5454 37.5239 25.1224 36.9473C25.6996 36.3706 26.6388 36.121 27.2219 36.39C27.8045 36.659 27.8095 37.3441 27.2328 37.9207ZM34.3212 32.4066C34.8978 31.83 35.8375 31.5804 36.4206 31.8493C37.0032 32.1183 37.0086 32.8034 36.4321 33.3801C35.8555 33.9567 34.9157 34.2063 34.3326 33.9374C33.7495 33.6684 33.7446 32.9833 34.3212 32.4066ZM30.8159 31.2544C31.3926 30.6777 32.3322 30.4281 32.9154 30.6971C33.4979 30.9661 33.5033 31.6512 32.9263 32.2278C32.3496 32.8045 31.41 33.0541 30.8268 32.7851C30.2443 32.5162 30.2393 31.831 30.8159 31.2544ZM30.7273 37.5422C31.3098 37.8112 31.3152 38.4963 30.7382 39.073C30.1616 39.6496 29.2219 39.8992 28.6388 39.6303C28.0556 39.3613 28.0508 38.6762 28.6273 38.0995C29.2045 37.5234 30.1441 37.2737 30.7273 37.5422ZM29.3996 29.4651C29.9822 29.7341 29.9876 30.4192 29.4106 30.9959C28.8339 31.5725 27.8942 31.8221 27.3111 31.5532C26.7285 31.2842 26.7231 30.5991 27.3002 30.0224C27.8768 29.4458 28.8166 29.1966 29.3996 29.4651Z" fill="#F6F8EC"/>
<path d="M39.4102 30.1517L35.8108 19.353L25.012 15.7531L28.6114 26.5513L39.4102 30.1517ZM31.3916 21.6842C31.7948 21.281 32.6052 21.437 33.2016 22.0335C33.798 22.63 33.9546 23.4404 33.5509 23.8436C33.1476 24.2469 32.3372 24.0908 31.7408 23.4943C31.1444 22.8979 30.9878 22.0874 31.3916 21.6842Z" fill="#F6F8EC"/>
<path d="M13.5783 0L3.3967 5.0905L13.5782 10.181L23.7592 5.0905L13.5783 0ZM13.5783 6.12334C12.7352 6.12334 12.051 5.66066 12.051 5.0905C12.051 4.51984 12.7347 4.05765 13.5783 4.05765C14.4219 4.05765 15.1055 4.52033 15.1055 5.0905C15.1049 5.66115 14.4214 6.12334 13.5783 6.12334Z" fill="#F6F8EC"/>
<path d="M16.1954 19.5179C16.6818 19.3386 17.0885 19.6224 17.2292 20.1664L23.3268 14.0688L24.5657 14.4819V6.14667L14.2306 11.3145V23.1649L15.2753 22.1202C15.1688 21.9314 15.105 21.6867 15.105 21.397C15.105 20.581 15.5935 19.7399 16.1954 19.5179ZM22.8458 8.40461C23.4482 8.18265 23.9361 8.66371 23.9361 9.47905C23.9361 10.2944 23.4482 11.1356 22.8458 11.3575C22.2434 11.5795 21.7555 11.0984 21.7555 10.2831C21.7554 9.46764 22.2434 8.62656 22.8458 8.40461ZM19.7388 13.7393C20.3412 13.5174 20.8291 13.9984 20.8291 14.8138C20.8291 15.6291 20.3412 16.4703 19.7388 16.6922C19.1364 16.9142 18.6485 16.4331 18.6485 15.6178C18.6485 14.8024 19.1369 13.9613 19.7388 13.7393ZM15.105 13.5624C15.105 12.7471 15.5929 11.9059 16.1953 11.684C16.7977 11.462 17.2856 11.9431 17.2856 12.7584C17.2856 13.5739 16.7977 14.4149 16.1953 14.6369C15.593 14.8588 15.105 14.3779 15.105 13.5624Z" fill="#F6F8EC"/>
<path d="M2.58978 19.6254L12.7792 24.6159L12.9253 24.4698V11.3145L2.58978 6.14667V19.6254ZM10.9354 19.5179C11.5377 19.7399 12.0257 20.581 12.0257 21.3964C12.0257 22.2117 11.5377 22.6928 10.9354 22.4708C10.333 22.2489 9.84504 21.4077 9.84504 20.5924C9.84504 19.777 10.3336 19.296 10.9354 19.5179ZM7.75758 13.5743C8.35997 13.7963 8.8479 14.6374 8.8479 15.4528C8.8479 16.2682 8.35997 16.7492 7.75758 16.5273C7.1552 16.3053 6.66727 15.4641 6.66727 14.6488C6.66717 13.8334 7.15568 13.3524 7.75758 13.5743ZM4.48702 8.40461C5.08941 8.62656 5.57734 9.46764 5.57734 10.2831C5.57734 11.0984 5.08941 11.5795 4.48702 11.3575C3.88464 11.1356 3.39671 10.2945 3.39671 9.47905C3.39671 8.66371 3.88464 8.18265 4.48702 8.40461Z" fill="#F6F8EC"/>
<path d="M23.6944 15.9294L14.1628 25.46L17.892 36.348L27.3483 26.8907L23.6944 15.9294ZM19.6238 32.7573C19.0472 33.334 18.3616 33.3291 18.0931 32.7459C17.8246 32.1629 18.0738 31.2231 18.6504 30.6465C19.2271 30.0698 19.9127 30.0748 20.1811 30.6574C20.4496 31.2401 20.2005 32.1807 19.6238 32.7573ZM22.8041 21.4573C22.2275 22.034 21.5419 22.0289 21.2734 21.4464C21.0044 20.8638 21.254 19.9236 21.8307 19.3469C22.4073 18.7703 23.0929 18.7753 23.3614 19.3578C23.6305 19.9409 23.3808 20.8806 22.8041 21.4573Z" fill="#F6F8EC"/>
</svg>
