<svg width="41" height="30" viewBox="0 0 41 30" fill="none" xmlns="http://www.w3.org/2000/svg">
<g clip-path="url(#clip0_61_17)">
<path d="M0.5 0.0602417H40.5V29.9398H0.5V0.0602417Z" fill="#012169"/>
<path d="M5.1875 0.0602417L20.4375 11.3273L35.625 0.0602417H40.5V3.91968L25.5 15.0623L40.5 26.1426V29.9398H35.5L20.5 18.7972L5.5625 29.9398H0.5V26.2048L15.4375 15.1245L0.5 4.04418V0.0602417H5.1875Z" fill="white"/>
<path d="M27 17.5522L40.5 27.4498V29.9398L23.5625 17.5522H27ZM15.5 18.7972L15.875 20.9759L3.875 29.9398H0.5L15.5 18.7972ZM40.5 0.0602417V0.246989L24.9375 11.9498L25.0625 9.21084L37.375 0.0602417H40.5ZM0.5 0.0602417L15.4375 11.0161H11.6875L0.5 2.6747V0.0602417Z" fill="#C8102E"/>
<path d="M15.5625 0.0602417V29.9398H25.5625V0.0602417H15.5625ZM0.5 10.0201V19.9799H40.5V10.0201H0.5Z" fill="white"/>
<path d="M0.5 12.0743V18.0502H40.5V12.0743H0.5ZM17.5625 0.0602417V29.9398H23.5625V0.0602417H17.5625Z" fill="#C8102E"/>
</g>
<defs>
<clipPath id="clip0_61_17">
<rect width="40" height="29.8795" fill="white" transform="translate(0.5 0.0602417)"/>
</clipPath>
</defs>
</svg>
