<svg width="25" height="25" viewBox="0 0 25 25" fill="none" xmlns="http://www.w3.org/2000/svg">
<g clip-path="url(#clip0_6_304)">
<path d="M12.4793 0.500244C6.16437 0.500244 0.99125 5.35687 0.5 11.5284L6.94287 14.1854C7.50546 13.8005 8.1736 13.5947 8.85781 13.5955C8.92175 13.5955 8.98494 13.5973 9.04719 13.6007L11.9128 9.45774V9.39974C11.9128 6.90684 13.9462 4.87818 16.4458 4.87818C18.9454 4.87818 20.9788 6.90684 20.9788 9.39974C20.9788 11.8925 18.9454 13.922 16.4458 13.922C16.4112 13.922 16.3774 13.9212 16.3429 13.9204L12.2561 16.8278C12.2587 16.8818 12.2604 16.9356 12.2604 16.9886C12.2604 18.8608 10.7338 20.3834 8.85781 20.3834C7.211 20.3834 5.83316 19.2105 5.52181 17.658L0.913437 15.7575C2.34059 20.7903 6.97653 24.48 12.4793 24.48C19.1185 24.48 24.5 19.1113 24.5 12.4901C24.5 5.86818 19.1185 0.500244 12.4793 0.500244ZM8.033 18.6929L6.55653 18.0843C6.81781 18.6279 7.271 19.0827 7.87213 19.3324C9.17122 19.8726 10.6693 19.258 11.2108 17.9611C11.4729 17.3375 11.4745 16.6367 11.2151 16.0119C10.9556 15.3828 10.4652 14.892 9.83637 14.6304C9.21106 14.3714 8.54159 14.3808 7.95341 14.6023L9.47919 15.2315C10.4375 15.6299 10.8907 16.7275 10.4911 17.6833C10.0924 18.639 8.99131 19.0913 8.033 18.6929ZM19.4665 9.39974C19.4665 7.73876 18.1111 6.38635 16.4461 6.38635C14.7803 6.38635 13.4249 7.73876 13.4249 9.39974C13.4249 11.0608 14.7803 12.4124 16.4461 12.4124C18.1111 12.4124 19.4665 11.0608 19.4665 9.39974ZM14.1818 9.39464C14.1818 8.14481 15.198 7.13182 16.4505 7.13182C17.7038 7.13182 18.72 8.14481 18.72 9.39464C18.72 10.6445 17.7038 11.6575 16.4504 11.6575C15.198 11.6575 14.1817 10.6445 14.1817 9.39473L14.1818 9.39464Z" fill="white"/>
</g>
<defs>
<clipPath id="clip0_6_304">
<rect width="24" height="24" fill="white" transform="translate(0.5 0.5)"/>
</clipPath>
</defs>
</svg>
